<?xml version="1.0" standalone="no"?>
<!DOCTYPE svg PUBLIC "-//W3C//DTD SVG 20010904//EN"
 "http://www.w3.org/TR/2001/REC-SVG-20010904/DTD/svg10.dtd">
<svg version="1.0" xmlns="http://www.w3.org/2000/svg"
 width="1200.000000pt" height="1200.000000pt" viewBox="0 0 1200.000000 1200.000000"
 preserveAspectRatio="xMidYMid meet">

<g transform="translate(0.000000,1200.000000) scale(0.100000,-0.100000)"
fill="#000000" stroke="none">
<path d="M7245 11590 c-308 -82 -768 -453 -1120 -905 -159 -204 -323 -470
-485 -787 l-75 -147 -82 -26 c-87 -27 -116 -52 -92 -81 16 -20 53 -18 102 6
35 18 39 18 20 3 -12 -10 -40 -31 -62 -46 -43 -30 -61 -69 -44 -96 6 -9 20
-15 32 -14 21 3 21 2 5 -35 -9 -20 -38 -91 -65 -157 l-48 -120 -56 -6 c-73 -8
-137 -33 -209 -82 -119 -80 -198 -182 -282 -365 -65 -138 -85 -228 -91 -409
-6 -161 1 -225 39 -340 l20 -61 -27 -84 c-40 -120 -147 -390 -202 -507 l-48
-102 -50 27 c-83 44 -226 146 -510 365 -306 235 -396 309 -615 505 -690 618
-1008 810 -1196 725 -92 -42 -136 -150 -136 -336 0 -213 46 -401 189 -765 177
-452 624 -1245 1036 -1840 144 -206 204 -287 228 -304 25 -17 35 1 -81 -156
-164 -222 -243 -458 -240 -715 1 -71 2 -139 2 -150 0 -11 -7 -39 -16 -63 -29
-77 -61 -343 -59 -497 3 -269 71 -610 170 -860 85 -213 131 -299 211 -387 l35
-38 -12 -78 c-26 -165 -63 -308 -102 -400 -55 -129 -55 -183 -3 -259 39 -57
96 -108 185 -167 55 -36 57 -39 64 -92 20 -160 89 -364 197 -578 93 -187 194
-302 315 -359 63 -30 76 -32 173 -32 91 0 111 3 149 24 65 34 147 116 192 191
63 107 136 302 160 430 24 124 29 134 94 151 142 39 177 103 139 255 -9 36
-14 67 -10 71 3 3 34 1 68 -5 35 -6 169 -29 298 -51 129 -22 298 -45 375 -51
77 -6 145 -12 151 -14 7 -3 3 -28 -12 -76 -27 -82 -31 -149 -10 -188 34 -64
116 -118 248 -161 61 -20 67 -25 83 -64 32 -79 149 -323 198 -412 146 -264
193 -326 311 -410 87 -61 130 -77 211 -78 287 -3 459 251 584 864 34 167 40
185 62 196 13 7 63 31 110 53 47 22 99 54 115 71 l29 30 -4 324 c-2 239 0 333
9 362 9 25 46 72 115 143 159 164 214 239 327 440 70 127 176 353 219 470 35
98 73 269 100 455 26 186 23 377 -10 495 -11 41 -21 104 -21 140 0 108 -29
317 -61 450 -32 128 -69 234 -141 398 l-40 92 73 98 c147 196 693 894 1050
1343 156 196 468 646 578 832 158 270 241 503 241 681 0 81 -3 99 -27 147 -52
100 -165 158 -289 145 -78 -8 -151 -32 -326 -107 -498 -213 -917 -491 -1752
-1167 -166 -133 -305 -241 -310 -239 -27 9 -105 312 -140 547 -65 428 -106
775 -127 1080 -17 249 -24 1382 -9 1467 18 105 65 205 166 354 118 175 139
217 170 344 71 295 37 570 -80 660 -41 31 -114 55 -165 54 -20 0 -67 -8 -106
-19z m158 -81 c21 -6 56 -26 77 -45 104 -94 112 -256 24 -536 -35 -112 -70
-179 -169 -322 -176 -257 -166 -202 -172 -1006 -6 -839 3 -1057 68 -1524 47
-344 109 -624 199 -906 l40 -125 -154 -150 c-162 -158 -245 -265 -206 -265 6
0 88 69 183 153 834 738 1750 1383 2317 1630 219 95 303 116 396 97 79 -17
144 -78 154 -145 19 -122 -26 -277 -136 -478 -212 -386 -399 -659 -796 -1164
-666 -848 -847 -1087 -1045 -1383 -144 -214 -227 -353 -222 -369 6 -17 21 -2
152 163 l127 158 44 -93 c55 -118 97 -236 144 -409 32 -118 36 -150 37 -250 0
-170 -13 -201 -134 -319 -279 -272 -505 -413 -995 -620 -555 -235 -856 -302
-1426 -318 -354 -9 -667 19 -1000 89 -210 44 -315 78 -543 173 -501 212 -679
322 -911 567 -158 168 -229 256 -267 335 l-30 62 11 188 c11 206 27 297 64
378 34 76 217 360 407 635 215 312 360 529 449 675 129 212 337 579 410 725
70 140 226 518 269 655 13 39 24 76 27 83 3 9 23 -3 59 -37 71 -64 164 -110
252 -123 62 -10 77 -9 144 11 101 31 189 82 259 151 l60 57 24 -42 c35 -59
144 -158 213 -191 53 -26 68 -29 164 -29 102 0 107 1 185 39 149 73 288 241
364 439 47 120 62 207 63 352 1 337 -136 555 -391 620 -127 33 -251 -16 -409
-159 -33 -31 -64 -56 -67 -56 -3 0 -15 19 -27 43 -51 99 -149 185 -256 223
-29 10 -53 21 -53 25 0 9 151 332 162 346 5 6 45 24 88 38 90 30 157 74 166
109 13 53 -17 59 -102 21 -32 -14 -59 -24 -60 -22 -2 2 26 20 61 41 65 38 92
67 80 86 -8 13 -47 13 -81 0 -15 -6 -29 -9 -31 -6 -6 6 140 274 235 429 143
234 313 461 472 630 88 94 339 322 466 425 57 46 137 96 224 141 147 75 211
99 295 110 6 0 27 -4 48 -10z m-1947 -2429 c99 -45 180 -132 214 -230 11 -33
10 -39 -24 -97 -52 -89 -93 -189 -118 -290 -31 -122 -31 -338 -1 -431 l21 -62
-37 -45 c-47 -59 -142 -130 -211 -157 -39 -15 -78 -22 -135 -22 -70 -1 -89 3
-147 31 -131 62 -199 154 -244 329 -39 156 -31 363 21 519 99 298 342 510 560
487 22 -2 68 -17 101 -32z m826 -64 c111 -53 212 -195 243 -344 20 -91 19
-293 -1 -390 -36 -175 -110 -317 -229 -439 -142 -144 -281 -191 -433 -144
-126 38 -213 122 -258 252 -107 304 -51 634 150 885 124 155 242 218 392 211
60 -3 94 -11 136 -31z m-3976 -251 c37 -14 126 -64 198 -112 247 -162 461
-330 941 -738 121 -103 272 -229 335 -280 183 -148 508 -381 588 -422 39 -20
72 -38 72 -41 0 -9 -183 -326 -298 -517 -195 -323 -556 -873 -632 -964 l-21
-24 -25 24 c-45 41 -142 174 -298 408 -168 251 -281 436 -411 676 -48 88 -120
219 -160 290 -182 326 -301 587 -428 935 -127 350 -152 473 -123 608 18 85 46
136 90 163 42 26 93 24 172 -6z m947 -4500 c88 -116 316 -340 425 -415 207
-145 465 -273 798 -398 370 -139 662 -195 1108 -214 525 -23 930 21 1281 137
206 68 543 205 757 309 333 161 476 257 723 484 149 138 153 139 154 61 3
-125 -420 -440 -944 -701 -133 -67 -491 -202 -681 -258 -126 -37 -408 -96
-644 -135 -268 -45 -744 -24 -1146 50 -329 61 -711 186 -1095 359 -356 161
-614 356 -790 600 -85 117 -85 116 -72 235 l6 63 30 -49 c17 -26 57 -84 90
-128z m-60 -193 c41 -54 93 -113 114 -132 21 -18 67 -59 102 -91 l64 -59 -18
-107 c-39 -237 15 -417 142 -469 42 -18 75 -5 161 61 72 56 126 69 155 37 28
-30 15 -56 -73 -147 -89 -92 -110 -127 -117 -199 -9 -86 10 -133 82 -203 52
-52 87 -74 200 -128 76 -37 172 -75 214 -86 120 -31 268 -43 356 -30 89 13
123 28 160 73 l27 32 -3 150 -4 151 34 0 c34 0 35 -1 78 -99 53 -122 80 -158
139 -186 38 -19 57 -22 114 -18 171 13 307 146 386 378 l22 65 243 -3 c134 -2
289 1 345 7 110 11 510 88 669 127 249 63 649 211 869 323 254 129 569 341
770 517 l89 78 -6 -124 c-12 -239 -63 -474 -153 -710 -49 -126 -168 -372 -188
-389 -10 -8 -28 -4 -70 15 -122 56 -285 56 -397 0 -80 -41 -139 -90 -285 -238
-145 -146 -162 -177 -150 -261 9 -61 36 -92 115 -131 75 -38 145 -108 156
-155 8 -38 -10 -98 -35 -111 -42 -22 -84 -11 -159 41 -92 65 -130 72 -206 35
-66 -33 -117 -90 -147 -165 -20 -51 -22 -74 -23 -236 0 -201 5 -237 39 -288
l24 -35 -126 -7 c-224 -13 -456 2 -627 41 -96 22 -277 99 -306 130 -22 24 -24
31 -19 112 3 48 5 146 5 217 0 109 -3 136 -18 158 -9 15 -24 27 -32 27 -12 0
-15 -17 -15 -92 l0 -91 -117 6 c-398 22 -980 159 -1368 322 -188 79 -489 263
-647 395 -127 106 -341 329 -393 409 -120 186 -176 360 -225 696 -19 130 -40
485 -28 485 3 0 39 -44 81 -98z m437 -387 c266 -161 713 -354 1060 -459 103
-31 454 -98 643 -122 75 -10 137 -22 137 -27 0 -27 -37 -130 -67 -188 -38 -74
-121 -172 -162 -194 -42 -21 -121 -28 -169 -16 -60 17 -105 60 -131 128 -47
124 -92 173 -159 173 -15 0 -38 -9 -51 -21 -38 -36 -43 -65 -30 -175 11 -94
10 -105 -7 -140 -25 -50 -85 -74 -209 -81 -117 -7 -224 14 -370 73 -140 58
-220 102 -268 151 -55 54 -71 89 -71 154 1 92 27 132 167 262 43 41 49 82 17
134 -39 65 -116 58 -233 -21 -46 -31 -94 -56 -106 -56 -33 0 -87 59 -103 111
-23 76 -15 390 10 375 4 -2 50 -30 102 -61z m4396 -800 c27 -8 60 -24 74 -34
l24 -19 -33 -54 c-105 -169 -280 -370 -432 -494 -38 -31 -69 -60 -69 -64 0
-17 40 -20 69 -6 17 9 32 16 34 16 2 0 7 -57 9 -127 3 -71 18 -201 33 -291
l28 -163 -29 -31 c-81 -86 -610 -278 -658 -239 -40 33 -50 82 -57 275 -4 113
-2 204 3 224 23 83 117 172 181 172 18 0 63 -19 110 -47 101 -59 163 -68 217
-31 69 47 73 149 9 238 -17 23 -67 65 -113 95 -46 30 -89 61 -95 69 -18 21
-17 96 0 129 24 44 283 301 335 332 106 62 253 83 360 50z m-4415 -318 c95
-85 224 -174 399 -275 255 -148 371 -200 680 -307 91 -32 175 -67 188 -78 26
-25 52 -104 52 -162 0 -38 -4 -45 -37 -68 -193 -134 -630 -112 -1008 50 -210
90 -354 179 -438 272 -72 80 -71 70 -22 216 49 144 72 248 82 360 7 85 -1 86
104 -8z m288 -947 c98 -36 276 -83 381 -101 41 -8 151 -14 243 -14 l168 0 -6
-45 c-11 -74 -54 -211 -90 -286 -61 -126 -196 -281 -271 -310 -56 -21 -153
-15 -211 14 -158 81 -335 388 -413 718 -17 69 -30 127 -30 128 0 2 33 -14 73
-35 40 -21 110 -52 156 -69z m3527 -292 c-25 -193 -98 -438 -173 -580 -58
-111 -142 -212 -207 -253 -44 -27 -58 -30 -125 -29 -97 0 -152 24 -232 100
-86 83 -245 324 -314 479 -47 105 -96 237 -91 243 3 3 50 0 103 -7 325 -43
707 -15 946 69 45 15 86 29 91 29 5 1 6 -23 2 -51z"/>
<path d="M6872 10675 c-16 -13 -39 -48 -52 -76 -20 -47 -20 -53 -6 -67 14 -14
17 -14 36 3 22 20 70 115 70 139 0 26 -18 27 -48 1z"/>
<path d="M6236 9684 c-25 -24 -19 -39 32 -84 l47 -42 -42 21 c-23 12 -53 21
-67 21 -27 0 -76 -19 -76 -30 0 -3 53 -42 118 -86 64 -43 147 -105 184 -137
58 -50 71 -56 88 -47 31 16 25 60 -15 119 l-36 52 50 -26 c65 -33 81 -32 81 3
0 42 -32 84 -101 134 -75 53 -200 118 -228 118 -11 0 -27 -7 -35 -16z"/>
<path d="M6568 7659 c-37 -21 -9 -61 49 -74 46 -9 51 -25 17 -52 -130 -107
-630 -281 -929 -322 -293 -41 -637 -8 -819 79 -74 35 -109 39 -92 11 4 -6 38
-29 77 -51 97 -57 104 -72 103 -195 -2 -101 -20 -184 -74 -327 -41 -110 -181
-294 -273 -360 l-29 -21 -41 40 c-50 47 -96 83 -108 83 -20 0 -7 -52 24 -92
37 -49 168 -157 251 -207 77 -46 234 -98 337 -112 117 -16 369 -6 490 20 282
60 512 185 715 386 114 113 195 223 282 383 112 205 165 346 202 539 l24 121
54 -39 c49 -34 92 -50 92 -33 0 30 -121 129 -230 187 -80 43 -100 49 -122 36z
m-340 -1095 c12 -4 22 -11 22 -17 0 -21 -120 -126 -218 -191 -256 -170 -512
-244 -807 -232 -127 5 -256 23 -271 39 -13 12 59 126 114 180 75 74 156 121
270 157 78 25 108 30 197 30 57 0 106 -4 109 -8 3 -5 -8 -22 -25 -38 -33 -31
-85 -112 -77 -120 3 -2 28 16 56 41 47 42 172 102 305 145 82 26 252 34 325
14z"/>
<path d="M8684 6677 c-33 -34 -44 -52 -44 -76 0 -46 31 -41 77 14 51 61 58 82
32 96 -17 9 -27 4 -65 -34z"/>
<path d="M4618 5794 c-26 -14 -58 -60 -58 -84 0 -17 43 -11 74 9 30 20 55 55
56 79 0 16 -39 15 -72 -4z"/>
<path d="M3672 4995 c-35 -30 -60 -81 -45 -96 17 -17 80 16 97 50 36 68 6 95
-52 46z"/>
<path d="M5589 4485 c-22 -50 -22 -110 0 -110 21 0 52 48 60 92 9 48 5 63 -20
63 -14 0 -26 -14 -40 -45z"/>
<path d="M4585 4201 c-11 -5 -35 -22 -53 -39 -82 -77 6 -202 142 -202 54 0 86
14 86 37 0 14 -10 15 -70 9 -51 -4 -80 -2 -105 8 -68 29 -67 108 3 166 36 30
35 36 -3 21z"/>
<path d="M4363 4114 c-27 -43 -29 -134 -4 -188 41 -84 152 -164 261 -187 62
-13 136 1 217 41 58 29 163 113 163 131 0 5 -59 -22 -130 -59 -124 -64 -134
-67 -198 -67 -82 1 -152 33 -217 101 -57 58 -79 116 -73 194 2 33 3 60 1 60
-1 0 -10 -12 -20 -26z"/>
<path d="M5270 8612 c-43 -21 -89 -109 -97 -185 -7 -65 21 -127 70 -158 88
-54 185 39 195 187 6 88 -15 140 -64 160 -44 18 -62 18 -104 -4z"/>
<path d="M5930 8534 c-92 -78 -113 -250 -38 -324 61 -61 170 -25 217 72 26 54
29 164 6 208 -38 73 -125 94 -185 44z"/>
<path d="M3225 7589 c-19 -30 118 -99 156 -79 10 6 19 13 19 15 0 13 -79 55
-102 55 -15 0 -30 5 -33 10 -8 13 -32 13 -40 -1z"/>
<path d="M3977 1343 c-10 -10 -8 -58 4 -90 15 -39 48 -73 66 -66 31 12 -11
163 -45 163 -10 0 -22 -3 -25 -7z"/>
</g>
</svg>
